<svg width="24" height="24" viewBox="0 0 24 24" fill="none" xmlns="http://www.w3.org/2000/svg">
<path fill-rule="evenodd" clip-rule="evenodd" d="M23.04 12.1845C23.04 11.369 22.9668 10.5849 22.8309 9.83221H12V14.2806H18.1891C17.9225 15.7181 17.1123 16.9361 15.8943 17.7515V20.637H19.6109C21.7855 18.6349 23.04 15.6868 23.04 12.1845Z" fill="#4285F4"/>
<path fill-rule="evenodd" clip-rule="evenodd" d="M11.9999 23.4229C15.1049 23.4229 17.7081 22.3931 19.6108 20.6368L15.8943 17.7513C14.8645 18.4413 13.5472 18.849 11.9999 18.849C9.00471 18.849 6.46948 16.8261 5.56516 14.1079H1.72311V17.0875C3.61539 20.8459 7.50448 23.4229 11.9999 23.4229Z" fill="#34A853"/>
<path fill-rule="evenodd" clip-rule="evenodd" d="M5.56523 14.1082C5.33523 13.4182 5.20455 12.6811 5.20455 11.9232C5.20455 11.1652 5.33523 10.4282 5.56523 9.73815V6.75861H1.72318C0.944318 8.31111 0.5 10.0675 0.5 11.9232C0.5 13.7788 0.944318 15.5352 1.72318 17.0877L5.56523 14.1082Z" fill="#FBBC05"/>
<path fill-rule="evenodd" clip-rule="evenodd" d="M11.9999 4.99696C13.6883 4.99696 15.2043 5.57719 16.3961 6.71673L19.6945 3.41832C17.7029 1.56264 15.0997 0.423096 11.9999 0.423096C7.50448 0.423096 3.61539 3.00014 1.72311 6.75855L5.56516 9.7381C6.46948 7.01991 9.00471 4.99696 11.9999 4.99696Z" fill="#EA4335"/>
</svg>
